<svg xmlns="http://www.w3.org/2000/svg" xmlns:xlink="http://www.w3.org/1999/xlink" width="500" zoomAndPan="magnify" viewBox="0 0 375 374.999991" height="500" preserveAspectRatio="xMidYMid meet" version="1.0"><defs><clipPath id="82132dbbb6"><path d="M 95.511719 95.511719 L 280.050781 95.511719 L 280.050781 280.050781 L 95.511719 280.050781 Z M 95.511719 95.511719 " clip-rule="nonzero"/></clipPath></defs><path fill="#bdf449" d="M 374.988281 187.496094 C 374.988281 190.5625 374.914062 193.628906 374.761719 196.695312 C 374.613281 199.757812 374.386719 202.820312 374.085938 205.871094 C 373.785156 208.925781 373.410156 211.96875 372.960938 215.003906 C 372.507812 218.039062 371.984375 221.0625 371.386719 224.074219 C 370.789062 227.082031 370.117188 230.074219 369.371094 233.050781 C 368.625 236.027344 367.804688 238.984375 366.914062 241.921875 C 366.023438 244.859375 365.0625 247.769531 364.027344 250.660156 C 362.996094 253.546875 361.890625 256.410156 360.71875 259.246094 C 359.542969 262.082031 358.300781 264.886719 356.988281 267.660156 C 355.675781 270.433594 354.296875 273.171875 352.851562 275.878906 C 351.402344 278.585938 349.890625 281.253906 348.3125 283.886719 C 346.738281 286.519531 345.09375 289.109375 343.390625 291.660156 C 341.6875 294.210938 339.917969 296.71875 338.089844 299.183594 C 336.265625 301.648438 334.375 304.066406 332.429688 306.441406 C 330.484375 308.8125 328.480469 311.132812 326.417969 313.40625 C 324.359375 315.683594 322.242188 317.902344 320.074219 320.074219 C 317.902344 322.242188 315.683594 324.359375 313.40625 326.417969 C 311.132812 328.480469 308.8125 330.484375 306.441406 332.429688 C 304.066406 334.375 301.648438 336.265625 299.183594 338.089844 C 296.71875 339.917969 294.210938 341.6875 291.660156 343.390625 C 289.109375 345.09375 286.519531 346.738281 283.886719 348.3125 C 281.253906 349.890625 278.585938 351.402344 275.878906 352.851562 C 273.171875 354.296875 270.433594 355.675781 267.660156 356.988281 C 264.886719 358.300781 262.082031 359.542969 259.246094 360.71875 C 256.410156 361.890625 253.546875 362.996094 250.660156 364.027344 C 247.769531 365.0625 244.859375 366.023438 241.921875 366.914062 C 238.984375 367.804688 236.027344 368.625 233.050781 369.371094 C 230.074219 370.117188 227.082031 370.789062 224.074219 371.386719 C 221.0625 371.984375 218.039062 372.507812 215.003906 372.960938 C 211.96875 373.410156 208.925781 373.785156 205.871094 374.085938 C 202.820312 374.386719 199.757812 374.613281 196.695312 374.761719 C 193.628906 374.914062 190.5625 374.988281 187.496094 374.988281 C 184.425781 374.988281 181.359375 374.914062 178.292969 374.761719 C 175.230469 374.613281 172.171875 374.386719 169.117188 374.085938 C 166.0625 373.785156 163.019531 373.410156 159.984375 372.960938 C 156.949219 372.507812 153.925781 371.984375 150.917969 371.386719 C 147.90625 370.789062 144.914062 370.117188 141.9375 369.371094 C 138.960938 368.625 136.003906 367.804688 133.066406 366.914062 C 130.132812 366.023438 127.21875 365.0625 124.328125 364.027344 C 121.441406 362.996094 118.578125 361.890625 115.742188 360.71875 C 112.910156 359.542969 110.105469 358.300781 107.332031 356.988281 C 104.554688 355.675781 101.816406 354.296875 99.109375 352.851562 C 96.402344 351.402344 93.734375 349.890625 91.101562 348.3125 C 88.472656 346.738281 85.878906 345.09375 83.328125 343.390625 C 80.777344 341.6875 78.269531 339.917969 75.804688 338.089844 C 73.339844 336.265625 70.921875 334.375 68.550781 332.429688 C 66.175781 330.484375 63.855469 328.480469 61.582031 326.417969 C 59.308594 324.359375 57.085938 322.242188 54.914062 320.074219 C 52.746094 317.902344 50.632812 315.683594 48.570312 313.40625 C 46.507812 311.132812 44.507812 308.8125 42.558594 306.441406 C 40.613281 304.066406 38.726562 301.648438 36.898438 299.183594 C 35.070312 296.71875 33.304688 294.210938 31.597656 291.660156 C 29.894531 289.109375 28.253906 286.519531 26.675781 283.886719 C 25.097656 281.253906 23.585938 278.585938 22.140625 275.878906 C 20.691406 273.171875 19.3125 270.433594 18 267.660156 C 16.691406 264.886719 15.445312 262.082031 14.273438 259.246094 C 13.097656 256.410156 11.992188 253.546875 10.960938 250.660156 C 9.925781 247.769531 8.964844 244.859375 8.074219 241.921875 C 7.183594 238.984375 6.363281 236.027344 5.617188 233.050781 C 4.875 230.074219 4.203125 227.082031 3.601562 224.074219 C 3.003906 221.0625 2.480469 218.039062 2.03125 215.003906 C 1.578125 211.96875 1.203125 208.925781 0.902344 205.871094 C 0.601562 202.820312 0.375 199.757812 0.226562 196.695312 C 0.0742188 193.628906 0 190.5625 0 187.496094 C 0 184.425781 0.0742188 181.359375 0.226562 178.292969 C 0.375 175.230469 0.601562 172.171875 0.902344 169.117188 C 1.203125 166.0625 1.578125 163.019531 2.03125 159.984375 C 2.480469 156.949219 3.003906 153.925781 3.601562 150.917969 C 4.203125 147.90625 4.875 144.914062 5.617188 141.9375 C 6.363281 138.960938 7.183594 136.003906 8.074219 133.066406 C 8.964844 130.132812 9.925781 127.21875 10.960938 124.328125 C 11.992188 121.441406 13.097656 118.578125 14.273438 115.742188 C 15.445312 112.910156 16.691406 110.105469 18 107.332031 C 19.3125 104.554688 20.691406 101.816406 22.140625 99.109375 C 23.585938 96.402344 25.097656 93.734375 26.675781 91.101562 C 28.253906 88.472656 29.894531 85.878906 31.597656 83.328125 C 33.304688 80.777344 35.070312 78.269531 36.898438 75.804688 C 38.726562 73.339844 40.613281 70.921875 42.558594 68.550781 C 44.507812 66.175781 46.507812 63.855469 48.570312 61.582031 C 50.632812 59.308594 52.746094 57.085938 54.914062 54.914062 C 57.085938 52.746094 59.308594 50.632812 61.582031 48.570312 C 63.855469 46.507812 66.175781 44.507812 68.550781 42.558594 C 70.921875 40.613281 73.339844 38.726562 75.804688 36.898438 C 78.269531 35.070312 80.777344 33.304688 83.328125 31.597656 C 85.878906 29.894531 88.472656 28.253906 91.101562 26.675781 C 93.734375 25.097656 96.402344 23.585938 99.109375 22.140625 C 101.816406 20.691406 104.554688 19.3125 107.332031 18 C 110.105469 16.691406 112.910156 15.445312 115.742188 14.273438 C 118.578125 13.097656 121.441406 11.992188 124.328125 10.960938 C 127.21875 9.925781 130.132812 8.964844 133.066406 8.074219 C 136.003906 7.183594 138.960938 6.363281 141.9375 5.617188 C 144.914062 4.875 147.90625 4.203125 150.917969 3.601562 C 153.925781 3.003906 156.949219 2.480469 159.984375 2.03125 C 163.019531 1.578125 166.0625 1.203125 169.117188 0.902344 C 172.171875 0.601562 175.230469 0.375 178.292969 0.226562 C 181.359375 0.0742188 184.425781 0 187.496094 0 C 190.5625 0 193.628906 0.0742188 196.695312 0.226562 C 199.757812 0.375 202.820312 0.601562 205.871094 0.902344 C 208.925781 1.203125 211.96875 1.578125 215.003906 2.03125 C 218.039062 2.480469 221.0625 3.003906 224.074219 3.601562 C 227.082031 4.203125 230.074219 4.875 233.050781 5.617188 C 236.027344 6.363281 238.984375 7.183594 241.921875 8.074219 C 244.859375 8.964844 247.769531 9.925781 250.660156 10.960938 C 253.546875 11.992188 256.410156 13.097656 259.246094 14.273438 C 262.082031 15.445312 264.886719 16.691406 267.660156 18 C 270.433594 19.3125 273.171875 20.691406 275.878906 22.140625 C 278.585938 23.585938 281.253906 25.097656 283.886719 26.675781 C 286.519531 28.253906 289.109375 29.894531 291.660156 31.597656 C 294.210938 33.304688 296.71875 35.070312 299.183594 36.898438 C 301.648438 38.726562 304.066406 40.613281 306.441406 42.558594 C 308.8125 44.507812 311.132812 46.507812 313.40625 48.570312 C 315.683594 50.632812 317.902344 52.746094 320.074219 54.914062 C 322.242188 57.085938 324.359375 59.308594 326.417969 61.582031 C 328.480469 63.855469 330.484375 66.175781 332.429688 68.550781 C 334.375 70.921875 336.265625 73.339844 338.089844 75.804688 C 339.917969 78.269531 341.6875 80.777344 343.390625 83.328125 C 345.09375 85.878906 346.738281 88.472656 348.3125 91.101562 C 349.890625 93.734375 351.402344 96.402344 352.851562 99.109375 C 354.296875 101.816406 355.675781 104.554688 356.988281 107.332031 C 358.300781 110.105469 359.542969 112.910156 360.71875 115.742188 C 361.890625 118.578125 362.996094 121.441406 364.027344 124.328125 C 365.0625 127.21875 366.023438 130.132812 366.914062 133.066406 C 367.804688 136.003906 368.625 138.960938 369.371094 141.9375 C 370.117188 144.914062 370.789062 147.90625 371.386719 150.917969 C 371.984375 153.925781 372.507812 156.949219 372.960938 159.984375 C 373.410156 163.019531 373.785156 166.0625 374.085938 169.117188 C 374.386719 172.171875 374.613281 175.230469 374.761719 178.292969 C 374.914062 181.359375 374.988281 184.425781 374.988281 187.496094 Z M 374.988281 187.496094 " fill-opacity="1" fill-rule="nonzero"/><path fill="#ffffff" d="M 187.496094 357.105469 C 93.886719 357.105469 17.882812 281.101562 17.882812 187.496094 C 17.882812 93.886719 93.886719 17.882812 187.496094 17.882812 C 281.101562 17.882812 357.105469 93.886719 357.105469 187.496094 C 357.105469 281.101562 281.101562 357.105469 187.496094 357.105469 Z M 187.496094 22.074219 C 96.121094 22.074219 22.074219 96.121094 22.074219 187.496094 C 22.074219 278.867188 96.402344 352.914062 187.496094 352.914062 C 278.867188 352.914062 352.914062 278.585938 352.914062 187.496094 C 352.914062 96.121094 278.867188 22.074219 187.496094 22.074219 Z M 187.496094 22.074219 " fill-opacity="1" fill-rule="nonzero"/><path fill="#ffffff" d="M 178.710938 104.753906 C 178.710938 101.847656 178.527344 98.949219 178.15625 96.066406 C 175.554688 96.34375 172.96875 96.730469 170.398438 97.230469 C 167.832031 97.726562 165.289062 98.332031 162.769531 99.046875 C 160.253906 99.757812 157.769531 100.578125 155.324219 101.503906 C 152.875 102.425781 150.472656 103.453125 148.109375 104.582031 C 145.75 105.710938 143.441406 106.9375 141.183594 108.261719 C 138.929688 109.585938 136.734375 111.003906 134.597656 112.515625 C 132.460938 114.027344 130.394531 115.625 128.390625 117.3125 C 126.390625 119 124.46875 120.765625 122.617188 122.617188 C 120.765625 124.46875 119 126.390625 117.3125 128.390625 C 115.625 130.394531 114.027344 132.460938 112.515625 134.597656 C 111.003906 136.734375 109.585938 138.929688 108.261719 141.183594 C 106.9375 143.441406 105.710938 145.75 104.582031 148.109375 C 103.453125 150.472656 102.425781 152.875 101.503906 155.324219 C 100.578125 157.769531 99.757812 160.253906 99.046875 162.769531 C 98.332031 165.289062 97.726562 167.832031 97.230469 170.398438 C 96.730469 172.96875 96.34375 175.554688 96.066406 178.15625 C 98.949219 178.527344 101.847656 178.710938 104.753906 178.710938 C 105.964844 178.707031 107.171875 178.675781 108.382812 178.617188 C 109.589844 178.554688 110.796875 178.464844 112 178.34375 C 113.203125 178.222656 114.40625 178.074219 115.601562 177.894531 C 116.796875 177.71875 117.988281 177.507812 119.175781 177.273438 C 120.363281 177.035156 121.542969 176.769531 122.714844 176.472656 C 123.886719 176.179688 125.054688 175.855469 126.210938 175.503906 C 127.367188 175.148438 128.515625 174.769531 129.65625 174.359375 C 130.792969 173.953125 131.921875 173.515625 133.039062 173.054688 C 134.15625 172.589844 135.261719 172.097656 136.355469 171.582031 C 137.449219 171.0625 138.53125 170.519531 139.597656 169.945312 C 140.664062 169.375 141.714844 168.78125 142.753906 168.15625 C 143.789062 167.535156 144.8125 166.886719 145.816406 166.214844 C 146.824219 165.542969 147.8125 164.84375 148.785156 164.125 C 149.753906 163.402344 150.707031 162.660156 151.644531 161.890625 C 152.578125 161.125 153.496094 160.332031 154.390625 159.519531 C 155.289062 158.707031 156.164062 157.875 157.019531 157.019531 C 157.875 156.164062 158.707031 155.289062 159.519531 154.390625 C 160.332031 153.496094 161.125 152.578125 161.890625 151.644531 C 162.660156 150.707031 163.402344 149.753906 164.125 148.785156 C 164.84375 147.8125 165.542969 146.824219 166.214844 145.816406 C 166.886719 144.8125 167.535156 143.789062 168.15625 142.753906 C 168.78125 141.714844 169.375 140.664062 169.945312 139.597656 C 170.519531 138.53125 171.0625 137.449219 171.582031 136.355469 C 172.097656 135.261719 172.589844 134.15625 173.054688 133.039062 C 173.515625 131.921875 173.953125 130.792969 174.359375 129.65625 C 174.769531 128.515625 175.148438 127.367188 175.503906 126.210938 C 175.855469 125.054688 176.179688 123.886719 176.472656 122.714844 C 176.769531 121.542969 177.035156 120.363281 177.273438 119.175781 C 177.507812 117.988281 177.71875 116.796875 177.894531 115.601562 C 178.074219 114.40625 178.222656 113.203125 178.34375 112 C 178.464844 110.796875 178.554688 109.589844 178.617188 108.382812 C 178.675781 107.171875 178.707031 105.964844 178.710938 104.753906 Z M 178.710938 104.753906 " fill-opacity="1" fill-rule="nonzero"/><path fill="#ffffff" d="M 197.199219 271.152344 C 197.195312 274.0625 197.378906 276.957031 197.753906 279.84375 C 200.355469 279.5625 202.941406 279.175781 205.507812 278.679688 C 208.078125 278.179688 210.621094 277.574219 213.136719 276.863281 C 215.652344 276.148438 218.136719 275.328125 220.585938 274.40625 C 223.03125 273.480469 225.4375 272.453125 227.796875 271.324219 C 230.15625 270.195312 232.464844 268.96875 234.722656 267.644531 C 236.980469 266.320312 239.175781 264.902344 241.3125 263.390625 C 243.445312 261.882812 245.515625 260.28125 247.515625 258.59375 C 249.515625 256.910156 251.441406 255.140625 253.289062 253.289062 C 255.140625 251.441406 256.910156 249.515625 258.597656 247.515625 C 260.28125 245.515625 261.882812 243.445312 263.390625 241.3125 C 264.902344 239.175781 266.320312 236.976562 267.644531 234.722656 C 268.96875 232.464844 270.195312 230.15625 271.324219 227.796875 C 272.453125 225.4375 273.480469 223.03125 274.40625 220.585938 C 275.328125 218.136719 276.148438 215.65625 276.863281 213.136719 C 277.574219 210.621094 278.179688 208.078125 278.679688 205.507812 C 279.175781 202.941406 279.5625 200.355469 279.84375 197.753906 C 276.957031 197.378906 274.0625 197.195312 271.152344 197.199219 C 269.941406 197.199219 268.734375 197.230469 267.527344 197.292969 C 266.316406 197.351562 265.109375 197.445312 263.90625 197.5625 C 262.703125 197.683594 261.503906 197.832031 260.304688 198.011719 C 259.109375 198.191406 257.917969 198.398438 256.730469 198.636719 C 255.546875 198.875 254.367188 199.140625 253.191406 199.433594 C 252.019531 199.730469 250.855469 200.054688 249.695312 200.40625 C 248.539062 200.757812 247.390625 201.136719 246.25 201.546875 C 245.113281 201.953125 243.984375 202.390625 242.867188 202.855469 C 241.75 203.320312 240.644531 203.808594 239.550781 204.328125 C 238.457031 204.84375 237.378906 205.390625 236.3125 205.960938 C 235.246094 206.53125 234.191406 207.128906 233.15625 207.75 C 232.117188 208.371094 231.09375 209.019531 230.089844 209.691406 C 229.085938 210.367188 228.09375 211.0625 227.125 211.78125 C 226.152344 212.503906 225.199219 213.25 224.265625 214.015625 C 223.328125 214.785156 222.414062 215.574219 221.515625 216.386719 C 220.621094 217.199219 219.746094 218.03125 218.890625 218.890625 C 218.03125 219.746094 217.199219 220.621094 216.386719 221.515625 C 215.574219 222.414062 214.785156 223.328125 214.015625 224.265625 C 213.25 225.199219 212.503906 226.152344 211.78125 227.125 C 211.0625 228.09375 210.367188 229.085938 209.691406 230.089844 C 209.019531 231.09375 208.371094 232.117188 207.75 233.15625 C 207.128906 234.191406 206.53125 235.246094 205.960938 236.3125 C 205.390625 237.378906 204.84375 238.457031 204.328125 239.550781 C 203.808594 240.644531 203.320312 241.75 202.855469 242.867188 C 202.390625 243.984375 201.953125 245.113281 201.546875 246.25 C 201.136719 247.390625 200.757812 248.539062 200.40625 249.695312 C 200.054688 250.855469 199.730469 252.019531 199.433594 253.191406 C 199.140625 254.367188 198.875 255.546875 198.636719 256.730469 C 198.398438 257.917969 198.191406 259.109375 198.011719 260.304688 C 197.832031 261.503906 197.683594 262.703125 197.5625 263.90625 C 197.445312 265.109375 197.351562 266.316406 197.292969 267.527344 C 197.230469 268.734375 197.199219 269.941406 197.199219 271.152344 Z M 197.199219 271.152344 " fill-opacity="1" fill-rule="nonzero"/><g clip-path="url(#82132dbbb6)"><path fill="#ffffff" d="M 271.152344 178.710938 C 274.109375 178.710938 277.160156 178.894531 280.027344 179.078125 C 279.765625 176.433594 279.390625 173.808594 278.902344 171.195312 C 278.417969 168.585938 277.816406 166 277.109375 163.4375 C 276.398438 160.878906 275.582031 158.351562 274.652344 155.863281 C 273.726562 153.375 272.695312 150.925781 271.558594 148.527344 C 270.421875 146.125 269.183594 143.777344 267.847656 141.480469 C 266.507812 139.1875 265.074219 136.953125 263.542969 134.78125 C 262.015625 132.609375 260.394531 130.507812 258.683594 128.472656 C 256.972656 126.441406 255.179688 124.484375 253.300781 122.609375 C 251.421875 120.730469 249.464844 118.933594 247.433594 117.222656 C 245.402344 115.511719 243.296875 113.894531 241.125 112.363281 C 238.953125 110.832031 236.722656 109.398438 234.425781 108.058594 C 232.128906 106.722656 229.78125 105.484375 227.382812 104.347656 C 224.980469 103.210938 222.535156 102.179688 220.042969 101.253906 C 217.554688 100.328125 215.03125 99.507812 212.46875 98.800781 C 209.910156 98.089844 207.324219 97.492188 204.710938 97.003906 C 202.101562 96.515625 199.472656 96.140625 196.828125 95.878906 C 197.011719 98.746094 197.199219 101.796875 197.199219 104.753906 C 197.195312 106.265625 197.15625 107.777344 197.078125 109.289062 C 197.003906 110.800781 196.890625 112.304688 196.738281 113.8125 C 196.589844 115.316406 196.402344 116.816406 196.179688 118.3125 C 195.953125 119.808594 195.695312 121.296875 195.398438 122.78125 C 195.101562 124.261719 194.769531 125.738281 194.398438 127.203125 C 194.03125 128.667969 193.625 130.125 193.183594 131.574219 C 192.742188 133.019531 192.269531 134.453125 191.757812 135.878906 C 191.246094 137.300781 190.703125 138.710938 190.121094 140.109375 C 189.542969 141.503906 188.929688 142.886719 188.28125 144.253906 C 187.632812 145.621094 186.953125 146.96875 186.238281 148.304688 C 185.527344 149.636719 184.78125 150.953125 184 152.246094 C 183.222656 153.542969 182.414062 154.820312 181.574219 156.078125 C 180.734375 157.335938 179.863281 158.570312 178.960938 159.785156 C 178.058594 161 177.128906 162.191406 176.167969 163.359375 C 175.210938 164.53125 174.222656 165.675781 173.207031 166.792969 C 172.191406 167.914062 171.148438 169.007812 170.078125 170.078125 C 169.007812 171.148438 167.914062 172.191406 166.792969 173.207031 C 165.675781 174.222656 164.53125 175.210938 163.359375 176.167969 C 162.191406 177.128906 161 178.058594 159.785156 178.960938 C 158.570312 179.863281 157.335938 180.734375 156.078125 181.574219 C 154.820312 182.414062 153.542969 183.222656 152.246094 184 C 150.953125 184.78125 149.636719 185.527344 148.304688 186.238281 C 146.96875 186.953125 145.621094 187.632812 144.253906 188.28125 C 142.886719 188.929688 141.503906 189.542969 140.109375 190.121094 C 138.710938 190.703125 137.300781 191.246094 135.878906 191.757812 C 134.453125 192.269531 133.019531 192.742188 131.574219 193.183594 C 130.125 193.625 128.667969 194.03125 127.203125 194.398438 C 125.738281 194.769531 124.261719 195.101562 122.78125 195.398438 C 121.296875 195.695312 119.808594 195.953125 118.3125 196.179688 C 116.816406 196.402344 115.316406 196.589844 113.8125 196.738281 C 112.304688 196.890625 110.800781 197.003906 109.289062 197.078125 C 107.777344 197.15625 106.265625 197.195312 104.753906 197.199219 C 101.796875 197.199219 98.746094 197.011719 95.878906 196.828125 C 96.140625 199.472656 96.515625 202.101562 97.003906 204.710938 C 97.492188 207.324219 98.089844 209.910156 98.800781 212.46875 C 99.507812 215.03125 100.328125 217.554688 101.253906 220.042969 C 102.179688 222.535156 103.210938 224.980469 104.347656 227.382812 C 105.484375 229.78125 106.722656 232.128906 108.058594 234.425781 C 109.398438 236.722656 110.832031 238.953125 112.363281 241.125 C 113.894531 243.296875 115.511719 245.402344 117.222656 247.433594 C 118.933594 249.464844 120.730469 251.421875 122.609375 253.300781 C 124.484375 255.179688 126.441406 256.972656 128.472656 258.683594 C 130.507812 260.394531 132.609375 262.015625 134.78125 263.542969 C 136.953125 265.074219 139.1875 266.507812 141.480469 267.847656 C 143.777344 269.183594 146.125 270.421875 148.527344 271.558594 C 150.925781 272.695312 153.375 273.726562 155.863281 274.652344 C 158.351562 275.582031 160.878906 276.398438 163.4375 277.109375 C 166 277.816406 168.585938 278.417969 171.195312 278.902344 C 173.808594 279.390625 176.433594 279.765625 179.078125 280.027344 C 178.894531 277.160156 178.710938 274.109375 178.710938 271.152344 C 178.710938 269.640625 178.75 268.128906 178.828125 266.617188 C 178.902344 265.109375 179.019531 263.601562 179.167969 262.097656 C 179.316406 260.589844 179.503906 259.089844 179.730469 257.597656 C 179.953125 256.101562 180.214844 254.609375 180.511719 253.128906 C 180.808594 251.644531 181.140625 250.171875 181.507812 248.703125 C 181.878906 247.238281 182.28125 245.78125 182.722656 244.335938 C 183.164062 242.886719 183.640625 241.453125 184.148438 240.03125 C 184.660156 238.605469 185.207031 237.195312 185.785156 235.800781 C 186.367188 234.402344 186.980469 233.019531 187.625 231.65625 C 188.273438 230.289062 188.953125 228.9375 189.667969 227.605469 C 190.382812 226.269531 191.128906 224.957031 191.90625 223.660156 C 192.683594 222.363281 193.492188 221.085938 194.335938 219.828125 C 195.175781 218.570312 196.046875 217.335938 196.945312 216.121094 C 197.847656 214.90625 198.777344 213.714844 199.738281 212.546875 C 200.699219 211.378906 201.6875 210.234375 202.703125 209.113281 C 203.71875 207.992188 204.757812 206.898438 205.828125 205.828125 C 206.898438 204.757812 207.992188 203.71875 209.113281 202.703125 C 210.234375 201.6875 211.378906 200.699219 212.546875 199.738281 C 213.714844 198.777344 214.90625 197.847656 216.121094 196.945312 C 217.335938 196.046875 218.570312 195.175781 219.828125 194.335938 C 221.085938 193.492188 222.363281 192.683594 223.660156 191.90625 C 224.957031 191.128906 226.269531 190.382812 227.605469 189.667969 C 228.9375 188.953125 230.289062 188.273438 231.65625 187.625 C 233.019531 186.980469 234.402344 186.367188 235.800781 185.785156 C 237.195312 185.207031 238.605469 184.660156 240.03125 184.148438 C 241.453125 183.640625 242.886719 183.164062 244.335938 182.722656 C 245.78125 182.28125 247.238281 181.878906 248.703125 181.507812 C 250.171875 181.140625 251.644531 180.808594 253.128906 180.511719 C 254.609375 180.214844 256.101562 179.953125 257.597656 179.730469 C 259.089844 179.503906 260.589844 179.316406 262.097656 179.167969 C 263.601562 179.019531 265.109375 178.902344 266.617188 178.828125 C 268.128906 178.75 269.640625 178.710938 271.152344 178.710938 Z M 271.152344 178.710938 " fill-opacity="1" fill-rule="nonzero"/></g></svg>